# xmcd CD database file
#
# Track frame offsets:
#	750
#	24306
#	40555
#	60402
#	86842
#	113102
#	132550
#	154535
#	189352
#	211087
#	231488
#	251193
#	271974
#	310309
#
# Disc length: 4145 seconds
#
# Revision: 0
# Processed by: cddbd v1.5.1PL0 Copyright (c) Steve Scherf et al.
# Submitted via: CDex 1.51
#
DISCID=b910270e
DTITLE=Blues Company - Two Nights Only
DYEAR=2001
DGENRE=Blues
TTITLE0=Blues is my Middlename
TTITLE1=I've Got The Blues
TTITLE2=Invitation to the Blues
TTITLE3=Rollin' and Tumblin'
TTITLE4=747
TTITLE5=Good Man Bad
TTITLE6=Bo Diddely's Groove
TTITLE7=I Just Can't Keep from Cryin
TTITLE8=Don't Do That She Might Get Mad
TTITLE9=Dinner At woolfies
TTITLE10=Walkin' Blues
TTITLE11=The Blues Is Allright
TTITLE12=(They Called Him) Muddy Waters
TTITLE13=*
EXTD=YEAR: 2001
EXTT0=
EXTT1=
EXTT2=
EXTT3=
EXTT4=
EXTT5=
EXTT6=
EXTT7=
EXTT8=
EXTT9=
EXTT10=
EXTT11=
EXTT12=
EXTT13=
PLAYORDER=
